<?xml version="1.0" encoding="iso-8859-1"?>
<!-- Uploaded to: SVG Repo, www.svgrepo.com, Generator: SVG Repo Mixer Tools -->
<svg height="800px" width="800px" version="1.1" id="Layer_1" xmlns="http://www.w3.org/2000/svg" xmlns:xlink="http://www.w3.org/1999/xlink" 
	 viewBox="0 0 511.999 511.999" xml:space="preserve">
<path style="fill:#CFF09E;" d="M190.341,33.806h-52.663c-23.646,0-42.814,19.169-42.814,42.814v358.758
	c0,23.646,19.169,42.814,42.814,42.814h52.663V33.806z"/>
<g>
	<path style="fill:#507C5C;" d="M190.341,491.879h-52.663c-31.155,0-56.501-25.347-56.501-56.502V76.62
		c0-31.155,25.347-56.502,56.501-56.502h52.663c7.56,0,13.688,6.128,13.688,13.688v444.386
		C204.029,485.751,197.901,491.879,190.341,491.879z M137.679,47.493c-16.06,0-29.125,13.065-29.125,29.126v358.758
		c0,16.06,13.065,29.126,29.125,29.126h38.975V47.493H137.679z"/>
	<path style="fill:#507C5C;" d="M67.241,188.888c-3.864,0-7.702-1.626-10.41-4.792c-4.913-5.745-4.238-14.386,1.508-19.299
		L247.232,3.284c5.746-4.913,14.387-4.236,19.299,1.508c4.914,5.745,4.239,14.386-1.508,19.299L76.13,185.604
		C73.551,187.808,70.388,188.888,67.241,188.888z"/>
	<path style="fill:#507C5C;" d="M256.12,511.999c-3.147,0-6.309-1.079-8.889-3.284L58.338,347.202
		c-5.745-4.913-6.42-13.554-1.508-19.299c4.913-5.745,13.554-6.421,19.299-1.508L265.02,487.908
		c5.746,4.913,6.421,13.554,1.508,19.299C263.822,510.372,259.981,511.999,256.12,511.999z"/>
	<path style="fill:#507C5C;" d="M415.64,491.879H151.368c-27.944,0-70.19-22.536-70.19-56.502V76.62
		c0-31.155,25.347-56.502,56.501-56.502h264.272c31.156,0,56.502,25.347,56.502,56.502v179.379c0,7.56-6.129,13.688-13.688,13.688
		h-91.453c-7.558,0-13.688-6.128-13.688-13.688c0-7.56,6.129-13.688,13.688-13.688h77.765V76.62
		c0-16.06-13.066-29.126-29.126-29.126H137.679c-16.06,0-29.125,13.066-29.125,29.126v358.758c0,14.063,25.128,29.126,42.814,29.126
		H415.64c6.515,0,15.437,0,15.437-29.126v-93.148c0-7.56,6.129-13.688,13.688-13.688c7.558,0,13.688,6.128,13.688,13.688v93.148
		c0,16.124-2.363,27.864-7.433,36.946C446.041,481.245,435.86,491.879,415.64,491.879z"/>
</g>
</svg>